<svg width="40" height="40" viewBox="0 0 40 40" fill="none" xmlns="http://www.w3.org/2000/svg">
<rect width="40" height="40" rx="16" fill="#D9F99D"/>
<path d="M31.2544 25.3892L14.7124 8.84717C12.2026 11.2192 9.39772 13.8429 8.8535 17.8545C8.4375 20.9209 9.33945 25.3823 12.4589 28.125C15.5784 30.8677 18.747 31.5394 21.8789 31.248C26.0566 30.8593 28.8042 28.0421 31.2544 25.3892Z" fill="url(#paint0_radial_112_48)"/>
<path d="M30.5625 24.6846L15.3726 9.49146C13.0747 11.675 10.342 14.0556 9.84374 17.7485C9.46286 20.5713 9.958 24.5912 13.0937 27.3633C16.2295 30.1353 19.1384 30.488 22.0059 30.2197C25.8309 29.8619 28.2964 26.9697 30.5625 24.6846Z" fill="url(#paint1_linear_112_48)"/>
<path d="M29.4907 23.6128L16.4961 10.6182L13.9891 13.0753C10.4026 16.6617 10.4026 22.4835 13.9891 26.0699C17.5755 29.6564 23.3973 29.6564 26.9837 26.0699L29.4907 23.6128Z" fill="url(#paint2_linear_112_48)"/>
<path d="M15.3165 21.8027C15.8603 21.8027 16.3011 21.3619 16.3011 20.8181C16.3011 20.2742 15.8603 19.8334 15.3165 19.8334C14.7727 19.8334 14.3318 20.2742 14.3318 20.8181C14.3318 21.3619 14.7727 21.8027 15.3165 21.8027Z" fill="url(#paint3_radial_112_48)"/>
<path d="M20.3438 20.5332C20.8876 20.5332 21.3285 20.0923 21.3285 19.5485C21.3285 19.0047 20.8876 18.5638 20.3438 18.5638C19.8 18.5638 19.3592 19.0047 19.3592 19.5485C19.3592 20.0923 19.8 20.5332 20.3438 20.5332Z" fill="url(#paint4_radial_112_48)"/>
<path d="M24.254 24.418C24.7978 24.418 25.2386 23.9771 25.2386 23.4333C25.2386 22.8895 24.7978 22.4486 24.254 22.4486C23.7102 22.4486 23.2693 22.8895 23.2693 23.4333C23.2693 23.9771 23.7102 24.418 24.254 24.418Z" fill="url(#paint5_radial_112_48)"/>
<path d="M19.0154 25.6875C19.5592 25.6875 20 25.2466 20 24.7028C20 24.159 19.5592 23.7181 19.0154 23.7181C18.4716 23.7181 18.0307 24.159 18.0307 24.7028C18.0307 25.2466 18.4716 25.6875 19.0154 25.6875Z" fill="url(#paint6_radial_112_48)"/>
<path d="M16.4591 16.75C17.0029 16.75 17.4437 16.3091 17.4437 15.7653C17.4437 15.2215 17.0029 14.7806 16.4591 14.7806C15.9153 14.7806 15.4744 15.2215 15.4744 15.7653C15.4744 16.3091 15.9153 16.75 16.4591 16.75Z" fill="url(#paint7_radial_112_48)"/>
<defs>
<radialGradient id="paint0_radial_112_48" cx="0" cy="0" r="1" gradientUnits="userSpaceOnUse" gradientTransform="translate(12.5859 33.3047) rotate(-68.9156) scale(20.627 20.6569)">
<stop offset="0.157258" stop-color="#69963E"/>
<stop offset="1" stop-color="#85B83D"/>
</radialGradient>
<linearGradient id="paint1_linear_112_48" x1="15.125" y1="12.2813" x2="23.4531" y2="30.918" gradientUnits="userSpaceOnUse">
<stop stop-color="#EFDBBE"/>
<stop offset="1" stop-color="#F2D6C7"/>
</linearGradient>
<linearGradient id="paint2_linear_112_48" x1="12.7714" y1="15.4169" x2="24.9294" y2="28.1041" gradientUnits="userSpaceOnUse">
<stop stop-color="#FF413C"/>
<stop offset="0.456" stop-color="#ED1452"/>
<stop offset="1" stop-color="#D5275D"/>
</linearGradient>
<radialGradient id="paint3_radial_112_48" cx="0" cy="0" r="1" gradientUnits="userSpaceOnUse" gradientTransform="translate(15.8099 20.555) rotate(142.696) scale(1.49058 1.49061)">
<stop offset="0.00558659" stop-color="#7B6D83"/>
<stop offset="0.412482" stop-color="#584D5D"/>
<stop offset="0.701389" stop-color="#4C305E"/>
<stop offset="1" stop-color="#1C1C1C"/>
</radialGradient>
<radialGradient id="paint4_radial_112_48" cx="0" cy="0" r="1" gradientUnits="userSpaceOnUse" gradientTransform="translate(20.8373 19.2855) rotate(142.696) scale(1.49058 1.49061)">
<stop offset="0.00558659" stop-color="#7B6D83"/>
<stop offset="0.412482" stop-color="#584D5D"/>
<stop offset="0.701389" stop-color="#4C305E"/>
<stop offset="1" stop-color="#1C1C1C"/>
</radialGradient>
<radialGradient id="paint5_radial_112_48" cx="0" cy="0" r="1" gradientUnits="userSpaceOnUse" gradientTransform="translate(24.7474 23.1702) rotate(142.696) scale(1.49058 1.49061)">
<stop offset="0.00558659" stop-color="#7B6D83"/>
<stop offset="0.412482" stop-color="#584D5D"/>
<stop offset="0.701389" stop-color="#4C305E"/>
<stop offset="1" stop-color="#1C1C1C"/>
</radialGradient>
<radialGradient id="paint6_radial_112_48" cx="0" cy="0" r="1" gradientUnits="userSpaceOnUse" gradientTransform="translate(19.5088 24.4398) rotate(142.696) scale(1.49058 1.49061)">
<stop offset="0.00558659" stop-color="#7B6D83"/>
<stop offset="0.412482" stop-color="#584D5D"/>
<stop offset="0.701389" stop-color="#4C305E"/>
<stop offset="1" stop-color="#1C1C1C"/>
</radialGradient>
<radialGradient id="paint7_radial_112_48" cx="0" cy="0" r="1" gradientUnits="userSpaceOnUse" gradientTransform="translate(16.9525 15.5023) rotate(142.696) scale(1.49058 1.49061)">
<stop offset="0.00558659" stop-color="#7B6D83"/>
<stop offset="0.412482" stop-color="#584D5D"/>
<stop offset="0.701389" stop-color="#4C305E"/>
<stop offset="1" stop-color="#1C1C1C"/>
</radialGradient>
</defs>
</svg>
