<svg width="40" height="40" viewBox="0 0 40 40" fill="none" xmlns="http://www.w3.org/2000/svg">
<rect width="40" height="40" rx="16" fill="#FED7AA"/>
<path d="M8.33334 21.3334C8.33334 29.075 13.5583 33 20 33C26.4417 33 31.6667 29.05 31.6667 21.3334C31.6667 13.475 26.4417 9.66669 20 9.66669C13.5583 9.66669 8.33334 13.3584 8.33334 21.3334Z" fill="#DDB78F"/>
<path d="M8.33334 21.3334C8.33334 29.075 13.5583 33 20 33C26.4417 33 31.6667 29.05 31.6667 21.3334C31.6667 13.475 26.4417 9.66669 20 9.66669C13.5583 9.66669 8.33334 13.3584 8.33334 21.3334Z" fill="url(#paint0_radial_109_30)"/>
<path d="M8.33334 21.3334C8.33334 29.075 13.5583 33 20 33C26.4417 33 31.6667 29.05 31.6667 21.3334C31.6667 13.475 26.4417 9.66669 20 9.66669C13.5583 9.66669 8.33334 13.3584 8.33334 21.3334Z" fill="url(#paint1_radial_109_30)"/>
<path d="M8.33334 21.3334C8.33334 29.075 13.5583 33 20 33C26.4417 33 31.6667 29.05 31.6667 21.3334C31.6667 13.475 26.4417 9.66669 20 9.66669C13.5583 9.66669 8.33334 13.3584 8.33334 21.3334Z" fill="url(#paint2_radial_109_30)"/>
<path d="M29.1 20.175L29.1333 19.6583C29.1667 19.1833 28.7667 18.7833 28.2917 18.8166L27.7833 18.85C27.5833 18.8583 27.375 18.925 27.1917 19.0333C26.675 19.3583 26.4667 20.0166 26.7 20.575C26.9833 21.2416 27.7667 21.525 28.4083 21.2083C28.825 21.0166 29.0667 20.6083 29.1 20.175Z" fill="#6F434A"/>
<g filter="url(#filter0_f_109_30)">
<path d="M28.9453 19.5625C28.974 19.1539 28.7109 19.0417 28.3463 19.0417C27.9818 19.0417 27.6378 19.2194 27.3438 19.3932C26.8993 19.6728 26.6629 20.025 26.8637 20.5053C27.1073 21.0787 27.5731 21.0849 28.125 20.8125C28.6355 20.5777 28.8168 20.0333 28.9453 19.5625Z" fill="url(#paint3_radial_109_30)"/>
</g>
<path d="M23.2417 14.9333L23.7583 14.9666C24.2333 15 24.6333 14.6 24.6 14.125L24.5667 13.6166C24.5583 13.4166 24.4917 13.2083 24.3833 13.025C24.0583 12.5083 23.4 12.3 22.8417 12.5333C22.175 12.8166 21.8917 13.6 22.2083 14.2416C22.4 14.6583 22.8083 14.9 23.2417 14.9333Z" fill="#6F434A"/>
<g filter="url(#filter1_f_109_30)">
<path d="M23.3334 14.4069L23.734 14.4309C24.1023 14.4549 24.4123 14.1674 24.3865 13.826L24.3607 13.4606C24.3542 13.3169 24.3025 13.1671 24.2185 13.0354C23.9666 12.664 23.4562 12.5143 23.0232 12.682C22.5064 12.8856 22.2868 13.4486 22.5323 13.9098C22.6808 14.2093 22.9974 14.383 23.3334 14.4069Z" fill="url(#paint4_radial_109_30)"/>
</g>
<path d="M15.5583 27.7917L15.5167 28.4334C15.475 29.025 15.9667 29.5167 16.5583 29.475L17.1917 29.4334C17.4417 29.4167 17.6917 29.3417 17.925 29.2C18.5667 28.8 18.825 27.9834 18.5333 27.2834C18.1833 26.45 17.2083 26.1 16.4167 26.5C15.9 26.7584 15.5917 27.2584 15.5583 27.7917Z" fill="#6F434A"/>
<g filter="url(#filter2_f_109_30)">
<path d="M15.8182 27.8042L15.7835 28.3393C15.7487 28.8326 16.1587 29.2426 16.6521 29.2079L17.1802 29.1731C17.3887 29.1593 17.5971 29.0967 17.7917 28.9786C18.3267 28.645 18.5422 27.964 18.2989 27.3804C18.0071 26.6854 17.1941 26.3936 16.5339 26.7272C16.1032 26.9426 15.846 27.3595 15.8182 27.8042Z" fill="url(#paint5_radial_109_30)"/>
</g>
<path d="M23.6667 20.6584L23.6917 20.2751C23.775 19.0167 22.7333 17.9751 21.4667 18.0501L21.0917 18.0751C20.7167 18.0917 20.3417 18.2001 19.9917 18.4084C18.9583 19.0167 18.5167 20.3167 18.975 21.4251C19.5167 22.7501 21.0583 23.3084 22.3167 22.6834C23.1333 22.2917 23.6167 21.5001 23.6667 20.6584Z" fill="#6F434A"/>
<g filter="url(#filter3_f_109_30)">
<path d="M23.3533 20.4863L23.3736 20.1749C23.4413 19.1528 22.5952 18.3067 21.5662 18.3676L21.2617 18.3879C20.9571 18.4014 20.6524 18.4894 20.3682 18.6587C19.5287 19.1528 19.17 20.2088 19.5423 21.1091C19.9823 22.1853 21.2346 22.6388 22.2567 22.1312C22.9201 21.813 23.3127 21.17 23.3533 20.4863Z" fill="url(#paint6_radial_109_30)"/>
</g>
<path d="M13.0667 15.85L13.0417 15.5C12.975 14.3583 13.9167 13.4083 15.0583 13.4833L15.4 13.5083C15.7417 13.525 16.0833 13.625 16.4 13.8083C17.3417 14.3583 17.7333 15.5416 17.325 16.5499C16.8333 17.7499 15.4333 18.2583 14.2917 17.6916C13.5583 17.3249 13.1167 16.6083 13.0667 15.85Z" fill="url(#paint7_radial_109_30)"/>
<g filter="url(#filter4_f_109_30)">
<path d="M13.4639 15.8231L13.4434 15.5364C13.3888 14.6013 14.1601 13.8232 15.0952 13.8846L15.375 13.9051C15.6549 13.9188 16.0688 13.8916 16.3282 14.0417C17.0994 14.4922 17.3397 15.4554 17.0052 16.2813C16.6025 17.2642 15.4023 17.7957 14.4672 17.3316C13.8666 17.0312 13.5048 16.4442 13.4639 15.8231Z" fill="url(#paint8_radial_109_30)"/>
</g>
<path d="M26.8833 27.0167L26.9 27.3167C26.9667 28.2917 26.15 29.1084 25.175 29.0417L24.8833 29.025C24.5917 29.0084 24.3 28.925 24.025 28.7667C23.2167 28.2917 22.8833 27.2834 23.2333 26.425C23.6583 25.4 24.85 24.9584 25.8333 25.45C26.4667 25.75 26.8417 26.3584 26.8833 27.0167Z" fill="#6F434A"/>
<g filter="url(#filter5_f_109_30)">
<path d="M26.6885 26.9331L26.7025 27.1853C26.7586 28.0053 26.0718 28.6922 25.2518 28.6361L25.0065 28.6221C24.7612 28.6081 24.5159 28.538 24.2846 28.4048C23.6048 28.0053 23.3244 27.1574 23.6188 26.4355C23.9763 25.5734 24.9784 25.202 25.8054 25.6155C26.3381 25.8678 26.6535 26.3794 26.6885 26.9331Z" fill="url(#paint9_radial_109_30)"/>
</g>
<path d="M11.5917 22.6167L11.5583 22.1001C11.525 21.6251 11.925 21.225 12.4 21.2584L12.9083 21.2917C13.1083 21.3 13.3167 21.3667 13.5 21.4751C14.0167 21.8001 14.225 22.4584 13.9917 23.0167C13.7083 23.6834 12.925 23.9667 12.2833 23.6501C11.8667 23.4584 11.6167 23.0501 11.5917 22.6167Z" fill="#6F434A"/>
<g filter="url(#filter6_f_109_30)">
<path d="M11.8431 22.5966L11.8165 22.1856C11.79 21.8076 12.1083 21.4894 12.4862 21.5159L12.8906 21.5424C13.0497 21.5491 13.2155 21.6021 13.3613 21.6883C13.7724 21.9469 13.9381 22.4706 13.7525 22.9148C13.5271 23.4452 12.9039 23.6706 12.3934 23.4187C12.0619 23.2662 11.863 22.9414 11.8431 22.5966Z" fill="url(#paint10_radial_109_30)"/>
</g>
<defs>
<filter id="filter0_f_109_30" x="26.2915" y="18.5417" width="3.156" height="2.94553" filterUnits="userSpaceOnUse" color-interpolation-filters="sRGB">
<feFlood flood-opacity="0" result="BackgroundImageFix"/>
<feBlend mode="normal" in="SourceGraphic" in2="BackgroundImageFix" result="shape"/>
<feGaussianBlur stdDeviation="0.25" result="effect1_foregroundBlur_109_30"/>
</filter>
<filter id="filter1_f_109_30" x="21.9317" y="12.1136" width="2.95626" height="2.81866" filterUnits="userSpaceOnUse" color-interpolation-filters="sRGB">
<feFlood flood-opacity="0" result="BackgroundImageFix"/>
<feBlend mode="normal" in="SourceGraphic" in2="BackgroundImageFix" result="shape"/>
<feGaussianBlur stdDeviation="0.25" result="effect1_foregroundBlur_109_30"/>
</filter>
<filter id="filter2_f_109_30" x="15.2814" y="26.0892" width="3.61699" height="3.62073" filterUnits="userSpaceOnUse" color-interpolation-filters="sRGB">
<feFlood flood-opacity="0" result="BackgroundImageFix"/>
<feBlend mode="normal" in="SourceGraphic" in2="BackgroundImageFix" result="shape"/>
<feGaussianBlur stdDeviation="0.25" result="effect1_foregroundBlur_109_30"/>
</filter>
<filter id="filter3_f_109_30" x="18.8957" y="17.8645" width="4.9817" height="4.97449" filterUnits="userSpaceOnUse" color-interpolation-filters="sRGB">
<feFlood flood-opacity="0" result="BackgroundImageFix"/>
<feBlend mode="normal" in="SourceGraphic" in2="BackgroundImageFix" result="shape"/>
<feGaussianBlur stdDeviation="0.25" result="effect1_foregroundBlur_109_30"/>
</filter>
<filter id="filter4_f_109_30" x="12.9407" y="13.3812" width="4.71162" height="4.6203" filterUnits="userSpaceOnUse" color-interpolation-filters="sRGB">
<feFlood flood-opacity="0" result="BackgroundImageFix"/>
<feBlend mode="normal" in="SourceGraphic" in2="BackgroundImageFix" result="shape"/>
<feGaussianBlur stdDeviation="0.25" result="effect1_foregroundBlur_109_30"/>
</filter>
<filter id="filter5_f_109_30" x="23.0026" y="24.9463" width="4.20311" height="4.19299" filterUnits="userSpaceOnUse" color-interpolation-filters="sRGB">
<feFlood flood-opacity="0" result="BackgroundImageFix"/>
<feBlend mode="normal" in="SourceGraphic" in2="BackgroundImageFix" result="shape"/>
<feGaussianBlur stdDeviation="0.25" result="effect1_foregroundBlur_109_30"/>
</filter>
<filter id="filter6_f_109_30" x="11.315" y="21.0143" width="3.01314" height="3.00751" filterUnits="userSpaceOnUse" color-interpolation-filters="sRGB">
<feFlood flood-opacity="0" result="BackgroundImageFix"/>
<feBlend mode="normal" in="SourceGraphic" in2="BackgroundImageFix" result="shape"/>
<feGaussianBlur stdDeviation="0.25" result="effect1_foregroundBlur_109_30"/>
</filter>
<radialGradient id="paint0_radial_109_30" cx="0" cy="0" r="1" gradientUnits="userSpaceOnUse" gradientTransform="translate(26.1979 14.5104) rotate(119.554) scale(17.4231)">
<stop stop-color="#FFDAAE"/>
<stop offset="1" stop-color="#D59077" stop-opacity="0"/>
</radialGradient>
<radialGradient id="paint1_radial_109_30" cx="0" cy="0" r="1" gradientUnits="userSpaceOnUse" gradientTransform="translate(21.1458 21.3334) rotate(83.2902) scale(14.2643 13.558)">
<stop offset="0.772068" stop-color="#BF9E7A" stop-opacity="0"/>
<stop offset="1" stop-color="#C4A47E"/>
</radialGradient>
<radialGradient id="paint2_radial_109_30" cx="0" cy="0" r="1" gradientUnits="userSpaceOnUse" gradientTransform="translate(22.8125 13.4167) rotate(92.6808) scale(31.1799)">
<stop offset="0.324983" stop-color="#E9AB8B" stop-opacity="0"/>
<stop offset="0.505034" stop-color="#DE9A80"/>
<stop offset="0.656015" stop-color="#D07067"/>
</radialGradient>
<radialGradient id="paint3_radial_109_30" cx="0" cy="0" r="1" gradientUnits="userSpaceOnUse" gradientTransform="translate(28.8433 19.1329) rotate(140.104) scale(2.29397 2.17647)">
<stop offset="0.175443" stop-color="#886562"/>
<stop offset="1" stop-color="#8E6C67" stop-opacity="0"/>
</radialGradient>
<radialGradient id="paint4_radial_109_30" cx="0" cy="0" r="1" gradientUnits="userSpaceOnUse" gradientTransform="translate(24.388 14.1753) rotate(-149.903) scale(2.41702 2.32632)">
<stop offset="0.175443" stop-color="#886562"/>
<stop offset="1" stop-color="#8E6C67" stop-opacity="0"/>
</radialGradient>
<radialGradient id="paint5_radial_109_30" cx="0" cy="0" r="1" gradientUnits="userSpaceOnUse" gradientTransform="translate(15.941 29.0485) rotate(-41.0159) scale(3.25692 3.3337)">
<stop offset="0.469854" stop-color="#896764" stop-opacity="0"/>
<stop offset="0.935135" stop-color="#896763"/>
</radialGradient>
<radialGradient id="paint6_radial_109_30" cx="0" cy="0" r="1" gradientUnits="userSpaceOnUse" gradientTransform="translate(19.3957 21.3333) rotate(-21.7768) scale(4.63285 4.74362)">
<stop offset="0.388269" stop-color="#896764" stop-opacity="0"/>
<stop offset="0.935135" stop-color="#896763"/>
</radialGradient>
<radialGradient id="paint7_radial_109_30" cx="0" cy="0" r="1" gradientUnits="userSpaceOnUse" gradientTransform="translate(15.9375 15.3958) rotate(123.403) scale(3.02745 3.02971)">
<stop stop-color="#7D5755"/>
<stop offset="1" stop-color="#60383B"/>
</radialGradient>
<radialGradient id="paint8_radial_109_30" cx="0" cy="0" r="1" gradientUnits="userSpaceOnUse" gradientTransform="translate(13.4407 15.9688) rotate(-3.96087) scale(4.01686 4.01986)">
<stop offset="0.596528" stop-color="#896764" stop-opacity="0"/>
<stop offset="0.935135" stop-color="#896763"/>
</radialGradient>
<radialGradient id="paint9_radial_109_30" cx="0" cy="0" r="1" gradientUnits="userSpaceOnUse" gradientTransform="translate(23.6979 28.4428) rotate(-40.886) scale(3.97852 4.06968)">
<stop offset="0.469854" stop-color="#896764" stop-opacity="0"/>
<stop offset="0.935135" stop-color="#896763"/>
</radialGradient>
<radialGradient id="paint10_radial_109_30" cx="0" cy="0" r="1" gradientUnits="userSpaceOnUse" gradientTransform="translate(11.9378 23.3982) rotate(-40.8959) scale(2.50084 2.55827)">
<stop offset="0.469854" stop-color="#896764" stop-opacity="0"/>
<stop offset="0.935135" stop-color="#896763"/>
</radialGradient>
</defs>
</svg>
